<svg id="Capa_1" enable-background="new 0 0 512.019 512.019" height="512" viewBox="0 0 512.019 512.019" width="512" xmlns="http://www.w3.org/2000/svg"><path d="m393.832 365.625 118.179-118.179h-136.149l49.169-120.119-94.11 27.395-74.911-154.722-74.911 154.723-94.11-27.395 49.169 120.119h-136.15l117.578 117.578-36.977 108.518 160.401-48.461v86.937h30v-86.911l159.87 48.495zm-122.822 28.133v-32.276l48.106-48.106-21.213-21.213-26.894 26.894v-69.037h-30v69.037l-26.894-26.894-21.213 21.213 48.106 48.106v32.26l-113.166 34.19 24.164-70.914-79.573-79.573h108.418l-42.544-103.934 58.744 17.1 58.956-121.77 58.956 121.77 58.744-17.1-42.544 103.934h108.418l-80.205 80.206 24.093 70.221z"/></svg>